# xmcd CD database file
#
# Track frame offsets:
#	150
#	22441
#	46429
#	64943
#	92761
#	106961
#	127054
#	147700
#	166087
#	178957
#	198137
#	216528
#	238890
#	253501
#	265438
#	283644
#	297421
#
# Disc length: 4303 seconds
#
# Revision: 0
# Processed by: cddbd v1.5.1PL2 Copyright (c) Steve Scherf et al.
# Submitted via: CDex 1.60beta1-cs1
#
DISCID=1f10cd11
DTITLE=Vicki Delor - End Of Day
DYEAR=2005
DGENRE=New Age
TTITLE0=Body Motion
TTITLE1=Starting Over
TTITLE2=Desert Dream
TTITLE3=Melancholy Memory
TTITLE4=The Wedding Waltz
TTITLE5=Pray For Peace
TTITLE6=Dunes
TTITLE7=Fantasy Voyage
TTITLE8=Sad Niki
TTITLE9=Follow Me
TTITLE10=Passing Time
TTITLE11=Come To The Garden
TTITLE12=Joyful Child Of One
TTITLE13=End Of Day
TTITLE14=Fly Away
TTITLE15=Eternity
TTITLE16=Winding Down
EXTD=YEAR: 2005
EXTT0=
EXTT1=
EXTT2=
EXTT3=
EXTT4=
EXTT5=
EXTT6=
EXTT7=
EXTT8=
EXTT9=
EXTT10=
EXTT11=
EXTT12=
EXTT13=
EXTT14=
EXTT15=
EXTT16=
PLAYORDER=
